<?xml version="1.0" encoding="iso-8859-1"?>
<!-- Generator: Adobe Illustrator 19.0.0, SVG Export Plug-In . SVG Version: 6.00 Build 0)  -->
<svg version="1.1" id="Capa_1" xmlns="http://www.w3.org/2000/svg" xmlns:xlink="http://www.w3.org/1999/xlink" x="0px" y="0px"
	 viewBox="0 0 466.221 466.221" style="enable-background:new 0 0 466.221 466.221;" xml:space="preserve">
<g>
	<path d="M17.483,359.281H81.88l0.291,79.84c0,6.702,3.788,12.821,9.907,15.735c2.331,1.166,4.954,1.748,7.576,1.748
		c3.788,0,7.576-1.166,10.781-3.788l118.886-93.535h219.415c9.616,0,17.483-7.867,17.483-17.483V27.099
		c0-9.616-7.867-17.483-17.483-17.483H17.483C7.867,9.616,0,17.483,0,27.099v314.699C0,351.414,7.867,359.281,17.483,359.281z
		 M34.967,44.582h396.288v279.732H223.203c-3.788,0-7.576,1.457-10.781,3.788l-95.284,74.887l-0.291-61.191
		c0-9.616-7.867-17.483-17.483-17.483H34.967V44.582z"/>
</g>
<g>
</g>
<g>
</g>
<g>
</g>
<g>
</g>
<g>
</g>
<g>
</g>
<g>
</g>
<g>
</g>
<g>
</g>
<g>
</g>
<g>
</g>
<g>
</g>
<g>
</g>
<g>
</g>
<g>
</g>
</svg>
